<svg width="520" height="38" viewBox="0 0 520 38" fill="none" xmlns="http://www.w3.org/2000/svg">
<path d="M0 4C0 1.79086 1.79086 0 4 0H516C518.209 0 520 1.79086 520 4V38H0V4Z" fill="#E9EEF2"/>
<path d="M29 18.5C29 22.0899 26.0899 25 22.5 25C18.9101 25 16 22.0899 16 18.5C16 14.9101 18.9101 12 22.5 12C26.0899 12 29 14.9101 29 18.5Z" fill="#A9BAC7"/>
<path d="M56 18.5C56 22.0899 53.0899 25 49.5 25C45.9101 25 43 22.0899 43 18.5C43 14.9101 45.9101 12 49.5 12C53.0899 12 56 14.9101 56 18.5Z" fill="#A9BAC7"/>
<path d="M83 18.5C83 22.0899 80.0899 25 76.5 25C72.9101 25 70 22.0899 70 18.5C70 14.9101 72.9101 12 76.5 12C80.0899 12 83 14.9101 83 18.5Z" fill="#A9BAC7"/>
</svg>
