<svg width="40" height="40" viewBox="0 0 40 40" fill="none" xmlns="http://www.w3.org/2000/svg">
<path d="M32 5.33337H7.99998C6.52665 5.33337 5.33331 6.52671 5.33331 8.00004V32C5.33331 33.4734 6.52665 34.6667 7.99998 34.6667H32C33.4733 34.6667 34.6666 33.4734 34.6666 32V8.00004C34.6666 6.52671 33.4733 5.33337 32 5.33337ZM14.6053 29.3334H10.672V16.6774H14.6053V29.3334ZM12.5986 14.868C11.3306 14.868 10.3053 13.84 10.3053 12.5747C10.3053 11.3094 11.332 10.2827 12.5986 10.2827C13.8626 10.2827 14.8906 11.3107 14.8906 12.5747C14.8906 13.84 13.8626 14.868 12.5986 14.868ZM29.3386 29.3334H25.408V23.1787C25.408 21.7107 25.3813 19.8227 23.364 19.8227C21.3173 19.8227 21.0026 21.4214 21.0026 23.072V29.3334H17.072V16.6774H20.8453V18.4067H20.8986C21.424 17.412 22.7066 16.3627 24.62 16.3627C28.6026 16.3627 29.3386 18.984 29.3386 22.392V29.3334Z" fill="white"/>
</svg>
