<svg width="60" height="50" viewBox="0 0 60 50" fill="none" xmlns="http://www.w3.org/2000/svg">
<path d="M26.4479 33.3197C28.1459 31.0778 29.1667 28.3044 29.1667 25.2913C29.0859 24.0787 29.0573 19.871 27.1693 20.4514C26.6224 20.632 26.3281 21.2177 26.5104 21.7569C26.8906 22.8843 27.0833 24.0736 27.0833 25.2913C26.526 40.1515 5.02332 40.4711 4.17199 25.5106C3.86991 16.5813 14.2813 10.8235 21.792 15.7175C22.9509 16.4295 24.0602 14.7294 22.9144 13.9786C14.0057 8.17129 1.65372 15.0544 2.09439 25.6369C2.14386 34.4447 11.2557 40.8068 19.6544 38.1003L26.0424 46.5494C26.2377 46.8074 26.5502 46.9622 26.8757 46.9622C27.0997 46.9622 27.3184 46.89 27.5007 46.7558L32.5007 43.0408C32.9617 42.7002 33.0528 42.0527 32.7091 41.596L26.4479 33.3197ZM27.0833 44.4853L21.6432 37.2897C22.901 36.6679 24.0469 35.8656 25.0443 34.9058L30.4141 42.0057L27.0833 44.4853Z" fill="black"/>
<path d="M55.8527 6.66675H39.5848C38.5172 6.68862 38.5132 8.58929 39.5848 8.61119H55.0396V28.0556H30.8007C29.7433 28.0702 29.7229 29.9782 30.8007 30.0001H55.8533C56.3027 30.0001 56.6667 29.565 56.6667 29.0279V7.63897C56.6667 7.10182 56.3021 6.66675 55.8527 6.66675Z" fill="black"/>
<path d="M7.29191 12.0413C7.86743 12.0413 8.33357 11.5795 8.33357 11.0094V8.78034H29.5209C30.8803 8.7597 30.8959 6.73968 29.5209 6.71643H7.29158C6.71606 6.71643 6.24991 7.17823 6.24991 7.74838V11.0094C6.24991 11.5795 6.71639 12.0413 7.29191 12.0413Z" fill="black"/>
<path d="M51.444 25.3973C52.8112 25.3741 52.8164 23.3566 51.444 23.3334H41.0274C39.6602 23.3566 39.655 25.374 41.0274 25.3973H51.444Z" fill="black"/>
<path d="M32.2919 5.68377H36.0263L17.7083 23.831L13.9818 20.1392C13.6146 19.7754 13.0364 19.7341 12.6198 20.0437L6.66664 24.4656C5.58071 25.2783 6.8255 26.9217 7.91664 26.1168L13.1458 22.2315L16.9714 26.0213C17.3776 26.4238 18.0365 26.4238 18.4453 26.0213L37.5 7.14434V10.8439C37.5208 12.1958 39.5598 12.2035 39.5833 10.8439V4.65219C39.5859 4.10268 39.0989 3.62539 38.5416 3.62024H32.2916C30.9244 3.64346 30.9195 5.66052 32.2919 5.68377Z" fill="black"/>
</svg>
