<svg width="60" height="56" viewBox="0 0 60 56" fill="none" xmlns="http://www.w3.org/2000/svg">
<path d="M53.1136 2.94739H6.57955C4.60186 2.94739 3 4.53502 3 6.49515V43.7466C3 45.7067 4.60186 47.2944 6.57955 47.2944H21.7923C22.2845 47.2944 22.6872 46.8952 22.6872 46.4074C22.6872 45.9196 22.2845 45.5205 21.7923 45.5205H6.57955C5.59514 45.5205 4.78977 44.7223 4.78977 43.7466V10.0429H54.9034V43.7466C54.9034 44.7223 54.098 45.5205 53.1136 45.5205H37.9009C37.4087 45.5205 37.006 45.9196 37.006 46.4074C37.006 46.8952 37.4087 47.2944 37.9009 47.2944H53.1136C55.0913 47.2944 56.6932 45.7067 56.6932 43.7466V6.49515C56.6932 4.53502 55.0913 2.94739 53.1136 2.94739ZM54.9034 8.26903H4.78977V6.49515C4.78977 5.51948 5.59514 4.72127 6.57955 4.72127H53.1136C54.098 4.72127 54.9034 5.51948 54.9034 6.49515V8.26903Z" fill="black"/>
<path d="M53.1136 6.49538C53.1136 7.67721 51.3239 7.67721 51.3239 6.49538C51.3239 5.31355 53.1136 5.31355 53.1136 6.49538Z" fill="black"/>
<path d="M49.5341 6.49538C49.5341 7.67721 47.7443 7.67721 47.7443 6.49538C47.7443 5.31355 49.5341 5.31355 49.5341 6.49538Z" fill="black"/>
<path d="M45.9546 6.49538C45.9546 7.67721 44.1648 7.67721 44.1648 6.49538C44.1648 5.31355 45.9546 5.31355 45.9546 6.49538Z" fill="black"/>
<path d="M37.0057 38.3095L40.9879 40.9348C41.14 41.0324 41.3101 41.0856 41.4801 41.0856C41.6233 41.0856 41.7665 41.0501 41.9007 40.9792C42.196 40.8284 42.375 40.5268 42.375 40.1987C42.375 34.487 38.2227 30.2649 37.0057 29.1563V26.8946C37.0057 18.5486 30.6341 13.9456 30.3655 13.7588C30.0522 13.5371 29.6406 13.5371 29.3274 13.7588C29.0589 13.954 22.6872 18.5572 22.6872 26.8946V29.1563C21.4701 30.265 17.3179 34.478 17.3179 40.1987C17.3179 40.5268 17.4968 40.8284 17.7922 40.9792C17.9264 41.0501 18.0696 41.0856 18.2128 41.0856C18.3828 41.0856 18.5618 41.0324 18.7049 40.9348L22.6872 38.3095V39.3117C22.6872 39.7995 23.0899 40.1986 23.5821 40.1986H36.1105C36.6027 40.1986 37.0054 39.7995 37.0054 39.3117L37.0057 38.3095ZM37.0057 31.7282C38.2496 33.1651 39.914 35.5421 40.4331 38.4423L37.0057 36.1806V31.7282ZM22.6875 36.1718L19.2601 38.4335C19.7701 35.5332 21.4346 33.1562 22.6875 31.7194V36.1718ZM35.2159 29.5554V38.4248H24.4773V26.8948C24.4773 20.8103 28.4058 16.8635 29.8466 15.622C31.2873 16.8638 35.2159 20.7929 35.2159 26.8948V29.5554Z" fill="black"/>
<path d="M26.267 25.1209C26.267 27.081 27.8689 28.6686 29.8466 28.6686C31.8243 28.6686 33.4261 27.081 33.4261 25.1209C33.4261 23.1608 31.8243 21.5731 29.8466 21.5731C27.8689 21.5731 26.267 23.1608 26.267 25.1209ZM31.6363 25.1209C31.6363 26.0965 30.831 26.8948 29.8466 26.8948C28.8622 26.8948 28.0568 26.0965 28.0568 25.1209C28.0568 24.1452 28.8622 23.347 29.8466 23.347C30.831 23.347 31.6363 24.1452 31.6363 25.1209Z" fill="black"/>
<path d="M29.8466 41.973C27.3767 41.973 25.3721 43.9598 25.3721 46.4077C25.3721 49.4233 28.9069 52.1375 29.3096 52.4389C29.4707 52.5542 29.6586 52.6163 29.8466 52.6163C30.0345 52.6163 30.2224 52.5542 30.3835 52.4389C30.7862 52.1373 34.321 49.4233 34.321 46.4077C34.321 43.9598 32.3164 41.973 29.8466 41.973ZM29.8466 50.5853C28.7906 49.6629 27.1619 47.9245 27.1619 46.4078C27.1619 44.8911 28.37 43.747 29.8466 43.747C31.3231 43.747 32.5312 44.9443 32.5312 46.4078C32.5312 47.8712 30.9025 49.6629 29.8466 50.5853Z" fill="black"/>
</svg>
