<svg width="60" height="53" viewBox="0 0 60 53" fill="none" xmlns="http://www.w3.org/2000/svg">
<path d="M6.89974 3.099C4.6421 3.099 2.79785 4.95474 2.79785 7.21823V39.5422C2.79785 41.8057 4.6421 43.6559 6.89974 43.6559H22.4793L22.5139 46.2432C22.5155 46.4064 22.5597 46.5662 22.6421 46.707C22.7246 46.8477 22.8424 46.9644 22.9838 47.0454C23.1253 47.1265 23.2854 47.1691 23.4484 47.1689C23.6114 47.1688 23.7715 47.126 23.9128 47.0448L29.3862 43.8896L32.4613 49.2048C32.5858 49.4166 32.7886 49.5708 33.0259 49.634C33.2631 49.6972 33.5156 49.6644 33.7289 49.5426L38.4308 46.8367C38.6443 46.7119 38.7998 46.5076 38.863 46.2683C38.9263 46.0291 38.8922 45.7745 38.7682 45.5603L37.6684 43.6559H52.865C55.1226 43.6559 56.9668 41.8057 56.9668 39.5422V7.21823C56.9668 4.95474 55.1226 3.099 52.865 3.099H6.89974ZM6.89974 4.96873H52.865C54.1159 4.96873 55.0993 5.95379 55.0993 7.21823V12.8292H4.66733V7.21823C4.66733 5.95379 5.64892 4.96873 6.89974 4.96873ZM8.95161 7.64368C8.62112 7.64487 8.3045 7.77741 8.0708 8.0124C7.83711 8.24738 7.70528 8.56575 7.70408 8.89808C7.70348 9.06342 7.73528 9.22725 7.79766 9.38023C7.86003 9.5332 7.95176 9.67233 8.0676 9.78965C8.18345 9.90698 8.32114 10.0002 8.47282 10.064C8.6245 10.1279 8.78719 10.161 8.95161 10.1616C9.11679 10.1622 9.28047 10.13 9.4332 10.0667C9.58593 10.0034 9.7247 9.91035 9.84151 9.7929C9.95832 9.67545 10.0509 9.53592 10.1138 9.38235C10.1767 9.22877 10.2088 9.06419 10.2083 8.89808C10.2077 8.73274 10.1747 8.56914 10.1112 8.41662C10.0477 8.2641 9.95499 8.12565 9.8383 8.00916C9.72161 7.89268 9.58324 7.80045 9.4311 7.73774C9.27896 7.67503 9.11603 7.64307 8.95161 7.64368ZM13.7648 7.64368C13.4343 7.64487 13.1177 7.77741 12.884 8.0124C12.6503 8.24738 12.5185 8.56575 12.5173 8.89808C12.5167 9.06342 12.5485 9.22725 12.6109 9.38023C12.6732 9.5332 12.765 9.67233 12.8808 9.78965C12.9967 9.90698 13.1343 10.0002 13.286 10.064C13.4377 10.1279 13.6004 10.161 13.7648 10.1616C13.9302 10.1625 14.094 10.1304 14.247 10.0672C14.3999 10.004 14.5389 9.91103 14.6559 9.79355C14.7729 9.67608 14.8656 9.53647 14.9287 9.38277C14.9917 9.22908 15.0239 9.06434 15.0233 8.89808C15.0227 8.73259 14.9896 8.56884 14.9261 8.4162C14.8625 8.26356 14.7696 8.12502 14.6527 8.00851C14.5358 7.89201 14.3972 7.79981 14.2449 7.73721C14.0925 7.67461 13.9294 7.64283 13.7648 7.64368ZM18.5798 7.64368C18.2494 7.64487 17.9327 7.77741 17.699 8.0124C17.4653 8.24738 17.3335 8.56575 17.3323 8.89808C17.3317 9.06342 17.3635 9.22725 17.4259 9.38023C17.4883 9.5332 17.58 9.67233 17.6958 9.78966C17.8117 9.90698 17.9494 10.0002 18.1011 10.064C18.2527 10.1279 18.4154 10.161 18.5798 10.1616C18.745 10.1622 18.9087 10.13 19.0614 10.0667C19.2142 10.0034 19.3529 9.91035 19.4697 9.7929C19.5866 9.67545 19.6791 9.53592 19.742 9.38235C19.805 9.22877 19.8371 9.06419 19.8365 8.89808C19.8359 8.73274 19.8029 8.56914 19.7394 8.41662C19.676 8.2641 19.5832 8.12565 19.4665 8.00916C19.3498 7.89268 19.2115 7.80045 19.0593 7.73774C18.9072 7.67503 18.7443 7.64307 18.5798 7.64368ZM4.66733 14.699H55.0993V39.5422C55.0993 40.8067 54.1159 41.7917 52.865 41.7917H36.5924L35.7005 40.2469L41.9729 36.6298C42.1143 36.5487 42.2321 36.4319 42.3145 36.291C42.3969 36.1502 42.4411 35.9902 42.4425 35.8269C42.444 35.6637 42.4027 35.5029 42.3229 35.3606C42.243 35.2183 42.1273 35.0994 41.9873 35.0157L23.6446 24.1261C23.502 24.0409 23.3393 23.9954 23.1732 23.9941C23.0071 23.9929 22.8437 24.036 22.6998 24.119C22.5558 24.2018 22.4364 24.3217 22.354 24.4661C22.2716 24.6105 22.2292 24.7743 22.2311 24.9407L22.4554 41.7919H6.89961C5.64879 41.7919 4.6672 40.8069 4.6672 39.5424L4.66733 14.699ZM24.1189 26.5819L39.6565 35.81L33.9569 39.0948C33.8496 39.156 33.7555 39.2378 33.68 39.3356C33.6045 39.4334 33.5491 39.5453 33.517 39.6646C33.485 39.784 33.4769 39.9085 33.4932 40.0311C33.5096 40.1536 33.55 40.2716 33.6122 40.3784L36.6854 45.6845L33.6049 47.4575L30.5371 42.1441C30.4138 41.929 30.2102 41.7719 29.9711 41.7071C29.732 41.6424 29.4771 41.6754 29.2623 41.7989L24.3615 44.629L24.1189 26.5819Z" fill="black"/>
</svg>
