<svg width="40" height="40" viewBox="0 0 40 40" fill="none" xmlns="http://www.w3.org/2000/svg">
<path d="M7.99998 5.33337C6.52665 5.33337 5.33331 6.52671 5.33331 8.00004V32C5.33331 33.4734 6.52665 34.6667 7.99998 34.6667H32C33.4733 34.6667 34.6666 33.4734 34.6666 32V8.00004C34.6666 6.52671 33.4733 5.33337 32 5.33337H7.99998ZM23.3333 14.6667H26.7422C27.1102 14.6667 27.4088 14.9654 27.4088 15.3334C27.4088 15.7014 27.1102 16 26.7422 16H23.3333C22.9653 16 22.6666 15.7014 22.6666 15.3334C22.6666 14.9654 22.9653 14.6667 23.3333 14.6667ZM11.8932 15.1797H15.6068C17.7988 15.1797 19.1068 16.2521 19.1068 17.9974C19.1068 19.1948 18.2211 20.2395 17.0625 20.4115V20.5521C18.5585 20.6615 19.6458 21.7888 19.6458 23.2448C19.6471 25.2248 18.1516 26.4792 15.7396 26.4792H11.8932C11.2159 26.4792 10.6666 25.93 10.6666 25.2526V16.4063C10.6666 15.729 11.2159 15.1797 11.8932 15.1797ZM13.0312 16.987V19.862H14.8073C16.0846 19.8634 16.7812 19.3377 16.7812 18.4297C16.7812 17.5297 16.1332 16.987 15.0052 16.987H13.0312ZM25.2838 17.6537C27.8292 17.6537 29.3307 19.2757 29.3307 22.0157V22.711H23.4062V22.8282C23.4369 24.1122 24.1895 24.9115 25.3802 24.9115C26.2802 24.9115 26.8979 24.5915 27.1406 24.0209H29.263C28.919 25.6502 27.4298 26.6667 25.3151 26.6667C22.6844 26.6667 21.1354 25.0058 21.1354 22.2032C21.1354 19.3925 22.7158 17.6537 25.2838 17.6537ZM25.2943 19.4011C24.2369 19.4011 23.4914 20.1352 23.414 21.2552H27.0937C27.0457 20.1126 26.3583 19.4011 25.2943 19.4011ZM13.0312 21.461V24.6719H15.138C16.5007 24.6719 17.237 24.0977 17.237 23.0417C17.237 22.007 16.4766 21.461 15.0833 21.461H13.0312Z" fill="white"/>
</svg>
