<svg width="152" height="27" viewBox="0 0 152 27" fill="none" xmlns="http://www.w3.org/2000/svg">
<path d="M26.6486 13.6853C26.6486 11.9616 27.0466 10.4154 27.8427 9.04657C28.6558 7.67777 29.7483 6.61315 31.1203 5.85271C32.5092 5.07537 34.0252 4.6867 35.6683 4.6867C37.5484 4.6867 39.2169 5.15141 40.6736 6.08084C42.1472 6.99337 43.2143 8.29457 43.8749 9.98445H40.3941C39.9367 9.05502 39.3015 8.36217 38.4885 7.9059C37.6755 7.44964 36.7354 7.22151 35.6683 7.22151C34.4995 7.22151 33.4578 7.48344 32.5431 8.0073C31.6284 8.53116 30.9086 9.28315 30.3835 10.2633C29.8753 11.2434 29.6212 12.3841 29.6212 13.6853C29.6212 14.9865 29.8753 16.1271 30.3835 17.1073C30.9086 18.0874 31.6284 18.8478 32.5431 19.3886C33.4578 19.9124 34.4995 20.1744 35.6683 20.1744C36.7354 20.1744 37.6755 19.9462 38.4885 19.49C39.3015 19.0337 39.9367 18.3409 40.3941 17.4114H43.8749C43.2143 19.1013 42.1472 20.4025 40.6736 21.315C39.2169 22.2276 37.5484 22.6838 35.6683 22.6838C34.0083 22.6838 32.4923 22.3036 31.1203 21.5432C29.7483 20.7658 28.6558 19.6928 27.8427 18.324C27.0466 16.9552 26.6486 15.4089 26.6486 13.6853Z" fill="url(#paint0_linear_54_30)"/>
<path d="M52.1943 22.7599C50.8731 22.7599 49.679 22.4641 48.6118 21.8727C47.5447 21.2643 46.7063 20.4194 46.0965 19.3379C45.4867 18.2395 45.1818 16.9721 45.1818 15.5357C45.1818 14.1162 45.4952 12.8572 46.1219 11.7588C46.7486 10.6604 47.604 9.81546 48.6881 9.224C49.7721 8.63255 50.9832 8.33682 52.3213 8.33682C53.6595 8.33682 54.8706 8.63255 55.9546 9.224C57.0387 9.81546 57.8941 10.6604 58.5208 11.7588C59.1475 12.8572 59.4609 14.1162 59.4609 15.5357C59.4609 16.9552 59.1391 18.2141 58.4954 19.3125C57.8517 20.411 56.9709 21.2643 55.853 21.8727C54.752 22.4641 53.5324 22.7599 52.1943 22.7599ZM52.1943 20.2504C52.9396 20.2504 53.6341 20.073 54.2777 19.7181C54.9383 19.3632 55.4719 18.8309 55.8784 18.1212C56.2849 17.4114 56.4882 16.5496 56.4882 15.5357C56.4882 14.5217 56.2934 13.6684 55.9038 12.9755C55.5142 12.2658 54.9976 11.7335 54.354 11.3786C53.7103 11.0237 53.0158 10.8463 52.2705 10.8463C51.5252 10.8463 50.8308 11.0237 50.1871 11.3786C49.5604 11.7335 49.0607 12.2658 48.6881 12.9755C48.3154 13.6684 48.1291 14.5217 48.1291 15.5357C48.1291 17.0397 48.5102 18.2057 49.2724 19.0337C50.0516 19.8448 51.0256 20.2504 52.1943 20.2504Z" fill="url(#paint1_linear_54_30)"/>
<path d="M60.2154 15.485C60.2154 14.0824 60.5033 12.8403 61.0792 11.7588C61.6721 10.6773 62.4682 9.84081 63.4675 9.24935C64.4838 8.641 65.6103 8.33682 66.8468 8.33682C67.7614 8.33682 68.6592 8.53961 69.54 8.94518C70.4377 9.33385 71.1491 9.85771 71.6742 10.5168V3.77417H74.5961V22.5317H71.6742V20.4278C71.1999 21.1038 70.5393 21.6615 69.6924 22.1008C68.8624 22.5402 67.9054 22.7599 66.8213 22.7599C65.6018 22.7599 64.4838 22.4557 63.4675 21.8473C62.4682 21.2221 61.6721 20.3603 61.0792 19.2618C60.5033 18.1465 60.2154 16.8876 60.2154 15.485ZM71.6742 15.5357C71.6742 14.5724 71.4709 13.736 71.0644 13.0262C70.6748 12.3165 70.1582 11.7757 69.5146 11.4039C68.8709 11.0322 68.1764 10.8463 67.4311 10.8463C66.6858 10.8463 65.9914 11.0322 65.3477 11.4039C64.704 11.7588 64.179 12.2911 63.7724 13.0009C63.3828 13.6937 63.1881 14.5217 63.1881 15.485C63.1881 16.4482 63.3828 17.2931 63.7724 18.0198C64.179 18.7464 64.704 19.3041 65.3477 19.6928C66.0083 20.0645 66.7028 20.2504 67.4311 20.2504C68.1764 20.2504 68.8709 20.0645 69.5146 19.6928C70.1582 19.321 70.6748 18.7802 71.0644 18.0705C71.4709 17.3438 71.6742 16.4989 71.6742 15.5357Z" fill="url(#paint2_linear_54_30)"/>
<path d="M90.088 15.2061C90.088 15.73 90.0541 16.2032 89.9863 16.6256H79.2897C79.3744 17.741 79.7894 18.6366 80.5347 19.3125C81.28 19.9885 82.1947 20.3265 83.2787 20.3265C84.8371 20.3265 85.938 19.6759 86.5817 18.3747H89.7068C89.2834 19.659 88.5127 20.7151 87.3948 21.5432C86.2938 22.3543 84.9217 22.7599 83.2787 22.7599C81.9406 22.7599 80.738 22.4641 79.6708 21.8727C78.6207 21.2643 77.7907 20.4194 77.1809 19.3379C76.5881 18.2395 76.2916 16.9721 76.2916 15.5357C76.2916 14.0993 76.5796 12.8403 77.1555 11.7588C77.7483 10.6604 78.5698 9.81546 79.62 9.224C80.6871 8.63255 81.9067 8.33682 83.2787 8.33682C84.5999 8.33682 85.7771 8.6241 86.8104 9.19866C87.8436 9.77321 88.6482 10.5844 89.2241 11.6321C89.8 12.6629 90.088 13.8543 90.088 15.2061ZM87.0645 14.2936C87.0475 13.229 86.6664 12.3756 85.9211 11.7335C85.1758 11.0913 84.2527 10.7702 83.1517 10.7702C82.1523 10.7702 81.2969 11.0913 80.5855 11.7335C79.8741 12.3587 79.4506 13.2121 79.3151 14.2936H87.0645Z" fill="url(#paint3_linear_54_30)"/>
<path d="M98.8583 8.33682C99.9593 8.33682 100.942 8.56495 101.806 9.02122C102.686 9.47748 103.372 10.1534 103.864 11.0491C104.355 11.9447 104.6 13.0262 104.6 14.2936V22.5317H101.729V14.7245C101.729 13.474 101.416 12.5193 100.789 11.8602C100.163 11.1843 99.3072 10.8463 98.2232 10.8463C97.1391 10.8463 96.2752 11.1843 95.6316 11.8602C95.0049 12.5193 94.6915 13.474 94.6915 14.7245V22.5317H91.795V8.56495H94.6915V10.1619C95.1658 9.58733 95.7671 9.13951 96.4954 8.81843C97.2407 8.49736 98.0284 8.33682 98.8583 8.33682Z" fill="url(#paint4_linear_54_30)"/>
<path d="M106.186 15.485C106.186 14.0824 106.474 12.8403 107.05 11.7588C107.643 10.6773 108.439 9.84081 109.438 9.24935C110.455 8.641 111.573 8.33682 112.792 8.33682C113.893 8.33682 114.85 8.5565 115.663 8.99587C116.493 9.41834 117.154 9.95065 117.645 10.5928V8.56495H120.567V22.5317H117.645V20.4532C117.154 21.1122 116.485 21.6615 115.638 22.1008C114.791 22.5402 113.825 22.7599 112.741 22.7599C111.539 22.7599 110.438 22.4557 109.438 21.8473C108.439 21.2221 107.643 20.3603 107.05 19.2618C106.474 18.1465 106.186 16.8876 106.186 15.485ZM117.645 15.5357C117.645 14.5724 117.442 13.736 117.035 13.0262C116.646 12.3165 116.129 11.7757 115.485 11.4039C114.842 11.0322 114.147 10.8463 113.402 10.8463C112.657 10.8463 111.962 11.0322 111.319 11.4039C110.675 11.7588 110.15 12.2911 109.743 13.0009C109.354 13.6937 109.159 14.5217 109.159 15.485C109.159 16.4482 109.354 17.2931 109.743 18.0198C110.15 18.7464 110.675 19.3041 111.319 19.6928C111.979 20.0645 112.674 20.2504 113.402 20.2504C114.147 20.2504 114.842 20.0645 115.485 19.6928C116.129 19.321 116.646 18.7802 117.035 18.0705C117.442 17.3438 117.645 16.4989 117.645 15.5357Z" fill="url(#paint5_linear_54_30)"/>
<path d="M130.291 8.33682C131.392 8.33682 132.375 8.56495 133.239 9.02122C134.119 9.47748 134.805 10.1534 135.297 11.0491C135.788 11.9447 136.033 13.0262 136.033 14.2936V22.5317H133.162V14.7245C133.162 13.474 132.849 12.5193 132.222 11.8602C131.596 11.1843 130.74 10.8463 129.656 10.8463C128.572 10.8463 127.708 11.1843 127.065 11.8602C126.438 12.5193 126.124 13.474 126.124 14.7245V22.5317H123.228V8.56495H126.124V10.1619C126.599 9.58733 127.2 9.13951 127.928 8.81843C128.674 8.49736 129.461 8.33682 130.291 8.33682Z" fill="url(#paint6_linear_54_30)"/>
<path d="M137.619 15.485C137.619 14.0824 137.907 12.8403 138.483 11.7588C139.076 10.6773 139.872 9.84081 140.871 9.24935C141.888 8.641 143.014 8.33682 144.251 8.33682C145.165 8.33682 146.063 8.53961 146.944 8.94518C147.842 9.33385 148.553 9.85771 149.078 10.5168V3.77417H152V22.5317H149.078V20.4278C148.604 21.1038 147.943 21.6615 147.096 22.1008C146.266 22.5402 145.309 22.7599 144.225 22.7599C143.006 22.7599 141.888 22.4557 140.871 21.8473C139.872 21.2221 139.076 20.3603 138.483 19.2618C137.907 18.1465 137.619 16.8876 137.619 15.485ZM149.078 15.5357C149.078 14.5724 148.875 13.736 148.468 13.0262C148.079 12.3165 147.562 11.7757 146.918 11.4039C146.275 11.0322 145.58 10.8463 144.835 10.8463C144.09 10.8463 143.395 11.0322 142.752 11.4039C142.108 11.7588 141.583 12.2911 141.176 13.0009C140.787 13.6937 140.592 14.5217 140.592 15.485C140.592 16.4482 140.787 17.2931 141.176 18.0198C141.583 18.7464 142.108 19.3041 142.752 19.6928C143.412 20.0645 144.107 20.2504 144.835 20.2504C145.58 20.2504 146.275 20.0645 146.918 19.6928C147.562 19.321 148.079 18.7802 148.468 18.0705C148.875 17.3438 149.078 16.4989 149.078 15.5357Z" fill="url(#paint7_linear_54_30)"/>
<path d="M0 0V0C4.8006 0 8.69225 3.89165 8.69225 8.69225V21.6162V21.6162C3.89165 21.6162 0 17.7246 0 12.924V0Z" fill="url(#paint8_linear_54_30)"/>
<path d="M11.2084 9.26416V9.26416C16.009 9.26416 19.9006 13.1558 19.9006 17.9564V17.9564C19.9006 22.757 16.009 26.6487 11.2084 26.6487V26.6487V9.26416Z" fill="url(#paint9_linear_54_30)"/>
<defs>
<linearGradient id="paint0_linear_54_30" x1="89.3242" y1="3.77417" x2="89.3242" y2="22.7599" gradientUnits="userSpaceOnUse">
<stop stop-color="#0F1A33"/>
<stop offset="1" stop-color="#30426A"/>
</linearGradient>
<linearGradient id="paint1_linear_54_30" x1="89.3242" y1="3.77417" x2="89.3242" y2="22.7599" gradientUnits="userSpaceOnUse">
<stop stop-color="#0F1A33"/>
<stop offset="1" stop-color="#30426A"/>
</linearGradient>
<linearGradient id="paint2_linear_54_30" x1="89.3242" y1="3.77417" x2="89.3242" y2="22.7599" gradientUnits="userSpaceOnUse">
<stop stop-color="#0F1A33"/>
<stop offset="1" stop-color="#30426A"/>
</linearGradient>
<linearGradient id="paint3_linear_54_30" x1="89.3242" y1="3.77417" x2="89.3242" y2="22.7599" gradientUnits="userSpaceOnUse">
<stop stop-color="#0F1A33"/>
<stop offset="1" stop-color="#30426A"/>
</linearGradient>
<linearGradient id="paint4_linear_54_30" x1="89.3242" y1="3.77417" x2="89.3242" y2="22.7599" gradientUnits="userSpaceOnUse">
<stop stop-color="#0F1A33"/>
<stop offset="1" stop-color="#30426A"/>
</linearGradient>
<linearGradient id="paint5_linear_54_30" x1="89.3242" y1="3.77417" x2="89.3242" y2="22.7599" gradientUnits="userSpaceOnUse">
<stop stop-color="#0F1A33"/>
<stop offset="1" stop-color="#30426A"/>
</linearGradient>
<linearGradient id="paint6_linear_54_30" x1="89.3242" y1="3.77417" x2="89.3242" y2="22.7599" gradientUnits="userSpaceOnUse">
<stop stop-color="#0F1A33"/>
<stop offset="1" stop-color="#30426A"/>
</linearGradient>
<linearGradient id="paint7_linear_54_30" x1="89.3242" y1="3.77417" x2="89.3242" y2="22.7599" gradientUnits="userSpaceOnUse">
<stop stop-color="#0F1A33"/>
<stop offset="1" stop-color="#30426A"/>
</linearGradient>
<linearGradient id="paint8_linear_54_30" x1="4.34612" y1="0" x2="4.34612" y2="21.6162" gradientUnits="userSpaceOnUse">
<stop stop-color="#D95016"/>
<stop offset="0.0001" stop-color="#C43D10"/>
<stop offset="1" stop-color="#FC783F"/>
</linearGradient>
<linearGradient id="paint9_linear_54_30" x1="15.5545" y1="9.26416" x2="15.5545" y2="26.6487" gradientUnits="userSpaceOnUse">
<stop stop-color="#0F1A33"/>
<stop offset="1" stop-color="#405480"/>
</linearGradient>
</defs>
</svg>
